<mxfile host="app.diagrams.net" modified="2024-01-17T16:32:22.526Z" agent="Mozilla/5.0 (Windows NT 10.0; Win64; x64) AppleWebKit/537.36 (KHTML, like Gecko) Chrome/120.0.0.0 Safari/537.36" etag="BOj4sa08jT9Sh9nMnCbb" version="22.1.19" type="device">
  <diagram id="R2lEEEUBdFMjLlhIrx00" name="Page-1">
    <mxGraphModel dx="2945" dy="1778" grid="1" gridSize="10" guides="1" tooltips="1" connect="1" arrows="1" fold="1" page="1" pageScale="1" pageWidth="850" pageHeight="1100" math="0" shadow="0" extFonts="Permanent Marker^https://fonts.googleapis.com/css?family=Permanent+Marker">
      <root>
        <mxCell id="0" />
        <mxCell id="1" parent="0" />
        <mxCell id="xh92ISO5HCk_JloRSpn9-1" value="Abogado" style="swimlane;childLayout=stackLayout;horizontal=1;startSize=50;horizontalStack=0;rounded=1;fontSize=14;fontStyle=0;strokeWidth=2;resizeParent=0;resizeLast=1;shadow=0;dashed=0;align=center;arcSize=4;whiteSpace=wrap;html=1;fillColor=#d5e8d4;strokeColor=#82b366;" parent="1" vertex="1">
          <mxGeometry x="-370" y="130" width="160" height="140" as="geometry" />
        </mxCell>
        <mxCell id="xh92ISO5HCk_JloRSpn9-2" value="&lt;u&gt;DNI&lt;br&gt;&lt;/u&gt;&lt;br&gt;Nombre&lt;br&gt;&lt;br&gt;NºColegiado" style="align=left;strokeColor=none;fillColor=none;spacingLeft=4;fontSize=12;verticalAlign=top;resizable=0;rotatable=0;part=1;html=1;" parent="xh92ISO5HCk_JloRSpn9-1" vertex="1">
          <mxGeometry y="50" width="160" height="90" as="geometry" />
        </mxCell>
        <mxCell id="xh92ISO5HCk_JloRSpn9-3" value="Comunidad" style="swimlane;childLayout=stackLayout;horizontal=1;startSize=50;horizontalStack=0;rounded=1;fontSize=14;fontStyle=0;strokeWidth=2;resizeParent=0;resizeLast=1;shadow=0;dashed=0;align=center;arcSize=4;whiteSpace=wrap;html=1;fillColor=#d5e8d4;strokeColor=#82b366;" parent="1" vertex="1">
          <mxGeometry x="400" y="100" width="160" height="250" as="geometry" />
        </mxCell>
        <mxCell id="xh92ISO5HCk_JloRSpn9-4" value="&lt;u&gt;IDComunidad&lt;/u&gt;&lt;br&gt;&lt;br&gt;Nombre&lt;br&gt;&lt;br&gt;Calle&lt;br&gt;(CP y población)&lt;br&gt;&lt;br&gt;NºPortal&lt;br&gt;&lt;br&gt;Planta&lt;br&gt;&lt;br&gt;Letra" style="align=left;strokeColor=none;fillColor=none;spacingLeft=4;fontSize=12;verticalAlign=top;resizable=0;rotatable=0;part=1;html=1;" parent="xh92ISO5HCk_JloRSpn9-3" vertex="1">
          <mxGeometry y="50" width="160" height="200" as="geometry" />
        </mxCell>
        <mxCell id="xh92ISO5HCk_JloRSpn9-5" value="Empresa" style="swimlane;childLayout=stackLayout;horizontal=1;startSize=50;horizontalStack=0;rounded=1;fontSize=14;fontStyle=0;strokeWidth=2;resizeParent=0;resizeLast=1;shadow=0;dashed=0;align=center;arcSize=4;whiteSpace=wrap;html=1;fillColor=#d5e8d4;strokeColor=#82b366;" parent="1" vertex="1">
          <mxGeometry x="1200" y="130" width="160" height="220" as="geometry" />
        </mxCell>
        <mxCell id="xh92ISO5HCk_JloRSpn9-6" value="&lt;u&gt;CIF&lt;/u&gt;&lt;br&gt;&lt;br&gt;Nombre&lt;br&gt;&lt;br&gt;Dirección&lt;br&gt;&lt;br&gt;Teléfono&lt;br&gt;&lt;br&gt;Persona de contacto&lt;br&gt;&lt;br&gt;Sector" style="align=left;strokeColor=none;fillColor=none;spacingLeft=4;fontSize=12;verticalAlign=top;resizable=0;rotatable=0;part=1;html=1;" parent="xh92ISO5HCk_JloRSpn9-5" vertex="1">
          <mxGeometry y="50" width="160" height="170" as="geometry" />
        </mxCell>
        <mxCell id="xh92ISO5HCk_JloRSpn9-7" value="Propietario" style="swimlane;childLayout=stackLayout;horizontal=1;startSize=50;horizontalStack=0;rounded=1;fontSize=14;fontStyle=0;strokeWidth=2;resizeParent=0;resizeLast=1;shadow=0;dashed=0;align=center;arcSize=4;whiteSpace=wrap;html=1;fillColor=#d5e8d4;strokeColor=#82b366;" parent="1" vertex="1">
          <mxGeometry x="205" y="-230" width="160" height="50" as="geometry" />
        </mxCell>
        <mxCell id="xh92ISO5HCk_JloRSpn9-9" value="" style="triangle;whiteSpace=wrap;html=1;rotation=90;fillColor=#dae8fc;strokeColor=#6c8ebf;" parent="1" vertex="1">
          <mxGeometry x="450" y="430" width="60" height="80" as="geometry" />
        </mxCell>
        <mxCell id="xh92ISO5HCk_JloRSpn9-10" value="Vivienda particular" style="swimlane;childLayout=stackLayout;horizontal=1;startSize=50;horizontalStack=0;rounded=1;fontSize=14;fontStyle=0;strokeWidth=2;resizeParent=0;resizeLast=1;shadow=0;dashed=0;align=center;arcSize=4;whiteSpace=wrap;html=1;fillColor=#d5e8d4;strokeColor=#82b366;" parent="1" vertex="1">
          <mxGeometry x="150" y="580" width="160" height="90" as="geometry" />
        </mxCell>
        <mxCell id="xh92ISO5HCk_JloRSpn9-11" value="NºHabitaciones" style="align=left;strokeColor=none;fillColor=none;spacingLeft=4;fontSize=12;verticalAlign=top;resizable=0;rotatable=0;part=1;html=1;" parent="xh92ISO5HCk_JloRSpn9-10" vertex="1">
          <mxGeometry y="50" width="160" height="40" as="geometry" />
        </mxCell>
        <mxCell id="xh92ISO5HCk_JloRSpn9-12" value="Local comercial" style="swimlane;childLayout=stackLayout;horizontal=1;startSize=50;horizontalStack=0;rounded=1;fontSize=14;fontStyle=0;strokeWidth=2;resizeParent=0;resizeLast=1;shadow=0;dashed=0;align=center;arcSize=4;whiteSpace=wrap;html=1;fillColor=#d5e8d4;strokeColor=#82b366;" parent="1" vertex="1">
          <mxGeometry x="400" y="580" width="160" height="110" as="geometry" />
        </mxCell>
        <mxCell id="xh92ISO5HCk_JloRSpn9-13" value="TipoComercio&lt;br&gt;&lt;br&gt;Horario" style="align=left;strokeColor=none;fillColor=none;spacingLeft=4;fontSize=12;verticalAlign=top;resizable=0;rotatable=0;part=1;html=1;" parent="xh92ISO5HCk_JloRSpn9-12" vertex="1">
          <mxGeometry y="50" width="160" height="60" as="geometry" />
        </mxCell>
        <mxCell id="xh92ISO5HCk_JloRSpn9-14" value="Oficina" style="swimlane;childLayout=stackLayout;horizontal=1;startSize=50;horizontalStack=0;rounded=1;fontSize=14;fontStyle=0;strokeWidth=2;resizeParent=0;resizeLast=1;shadow=0;dashed=0;align=center;arcSize=4;whiteSpace=wrap;html=1;fillColor=#d5e8d4;strokeColor=#82b366;" parent="1" vertex="1">
          <mxGeometry x="630" y="580" width="160" height="80" as="geometry" />
        </mxCell>
        <mxCell id="xh92ISO5HCk_JloRSpn9-15" value="ActividadDestinada" style="align=left;strokeColor=none;fillColor=none;spacingLeft=4;fontSize=12;verticalAlign=top;resizable=0;rotatable=0;part=1;html=1;" parent="xh92ISO5HCk_JloRSpn9-14" vertex="1">
          <mxGeometry y="50" width="160" height="30" as="geometry" />
        </mxCell>
        <mxCell id="xh92ISO5HCk_JloRSpn9-17" value="Inquilino" style="swimlane;childLayout=stackLayout;horizontal=1;startSize=50;horizontalStack=0;rounded=1;fontSize=14;fontStyle=0;strokeWidth=2;resizeParent=0;resizeLast=1;shadow=0;dashed=0;align=center;arcSize=4;whiteSpace=wrap;html=1;fillColor=#d5e8d4;strokeColor=#82b366;" parent="1" vertex="1">
          <mxGeometry x="595" y="-230" width="160" height="50" as="geometry" />
        </mxCell>
        <mxCell id="xh92ISO5HCk_JloRSpn9-21" value="Presidente" style="swimlane;childLayout=stackLayout;horizontal=1;startSize=50;horizontalStack=0;rounded=1;fontSize=14;fontStyle=0;strokeWidth=2;resizeParent=0;resizeLast=1;shadow=0;dashed=0;align=center;arcSize=4;whiteSpace=wrap;html=1;fillColor=#d5e8d4;strokeColor=#82b366;" parent="1" vertex="1">
          <mxGeometry x="-1090" y="360" width="160" height="180" as="geometry" />
        </mxCell>
        <mxCell id="xh92ISO5HCk_JloRSpn9-22" value="&lt;u&gt;IDPresidente&lt;br&gt;&lt;br&gt;Nombre&lt;/u&gt;&lt;br&gt;&lt;br&gt;&lt;u&gt;Apellidos&lt;/u&gt;&lt;br&gt;&lt;br&gt;Propiedad&lt;br&gt;(Multivaluado)" style="align=left;strokeColor=none;fillColor=none;spacingLeft=4;fontSize=12;verticalAlign=top;resizable=0;rotatable=0;part=1;html=1;" parent="xh92ISO5HCk_JloRSpn9-21" vertex="1">
          <mxGeometry y="50" width="160" height="130" as="geometry" />
        </mxCell>
        <mxCell id="xh92ISO5HCk_JloRSpn9-24" value="Cuenta Bancaria" style="swimlane;childLayout=stackLayout;horizontal=1;startSize=50;horizontalStack=0;rounded=1;fontSize=14;fontStyle=0;strokeWidth=2;resizeParent=0;resizeLast=1;shadow=0;dashed=0;align=center;arcSize=4;whiteSpace=wrap;html=1;fillColor=#d5e8d4;strokeColor=#82b366;" parent="1" vertex="1">
          <mxGeometry x="1630" y="-90" width="160" height="250" as="geometry" />
        </mxCell>
        <mxCell id="xh92ISO5HCk_JloRSpn9-25" value="&lt;u&gt;CodCuenta&lt;/u&gt;&lt;br&gt;&lt;br&gt;Saldo" style="align=left;strokeColor=none;fillColor=none;spacingLeft=4;fontSize=12;verticalAlign=top;resizable=0;rotatable=0;part=1;html=1;" parent="xh92ISO5HCk_JloRSpn9-24" vertex="1">
          <mxGeometry y="50" width="160" height="200" as="geometry" />
        </mxCell>
        <mxCell id="xh92ISO5HCk_JloRSpn9-26" value="Banco" style="swimlane;childLayout=stackLayout;horizontal=1;startSize=50;horizontalStack=0;rounded=1;fontSize=14;fontStyle=0;strokeWidth=2;resizeParent=0;resizeLast=1;shadow=0;dashed=0;align=center;arcSize=4;whiteSpace=wrap;html=1;fillColor=#d5e8d4;strokeColor=#82b366;" parent="1" vertex="1">
          <mxGeometry x="1560" y="360" width="160" height="250" as="geometry" />
        </mxCell>
        <mxCell id="xh92ISO5HCk_JloRSpn9-27" value="&lt;u&gt;CodBanco&lt;/u&gt;&lt;br&gt;&lt;br&gt;Nombre&lt;br&gt;&lt;br&gt;PersonaContacto" style="align=left;strokeColor=none;fillColor=none;spacingLeft=4;fontSize=12;verticalAlign=top;resizable=0;rotatable=0;part=1;html=1;" parent="xh92ISO5HCk_JloRSpn9-26" vertex="1">
          <mxGeometry y="50" width="160" height="200" as="geometry" />
        </mxCell>
        <mxCell id="xh92ISO5HCk_JloRSpn9-28" value="Recibo" style="swimlane;childLayout=stackLayout;horizontal=1;startSize=50;horizontalStack=0;rounded=1;fontSize=14;fontStyle=0;strokeWidth=2;resizeParent=0;resizeLast=1;shadow=0;dashed=0;align=center;arcSize=4;whiteSpace=wrap;html=1;fillColor=#d5e8d4;strokeColor=#82b366;" parent="1" vertex="1">
          <mxGeometry x="-680" y="370" width="160" height="150" as="geometry" />
        </mxCell>
        <mxCell id="xh92ISO5HCk_JloRSpn9-29" value="&lt;u&gt;NºRecibo&lt;/u&gt;&lt;br&gt;&lt;br&gt;Fecha&lt;br&gt;&lt;br&gt;Importe" style="align=left;strokeColor=none;fillColor=none;spacingLeft=4;fontSize=12;verticalAlign=top;resizable=0;rotatable=0;part=1;html=1;" parent="xh92ISO5HCk_JloRSpn9-28" vertex="1">
          <mxGeometry y="50" width="160" height="100" as="geometry" />
        </mxCell>
        <mxCell id="xh92ISO5HCk_JloRSpn9-30" value="" style="triangle;whiteSpace=wrap;html=1;rotation=90;fillColor=#dae8fc;strokeColor=#6c8ebf;" parent="1" vertex="1">
          <mxGeometry x="445" y="-380" width="60" height="80" as="geometry" />
        </mxCell>
        <mxCell id="xh92ISO5HCk_JloRSpn9-31" value="Persona" style="swimlane;childLayout=stackLayout;horizontal=1;startSize=50;horizontalStack=0;rounded=1;fontSize=14;fontStyle=0;strokeWidth=2;resizeParent=0;resizeLast=1;shadow=0;dashed=0;align=center;arcSize=4;whiteSpace=wrap;html=1;fillColor=#d5e8d4;strokeColor=#82b366;" parent="1" vertex="1">
          <mxGeometry x="395" y="-750" width="160" height="270" as="geometry" />
        </mxCell>
        <mxCell id="xh92ISO5HCk_JloRSpn9-32" value="&lt;u&gt;Nombre&lt;/u&gt;&lt;br&gt;&lt;br&gt;Apellidos&lt;br&gt;&lt;br&gt;Dirección&lt;br&gt;&lt;br&gt;Teléfono" style="align=left;strokeColor=none;fillColor=none;spacingLeft=4;fontSize=12;verticalAlign=top;resizable=0;rotatable=0;part=1;html=1;" parent="xh92ISO5HCk_JloRSpn9-31" vertex="1">
          <mxGeometry y="50" width="160" height="220" as="geometry" />
        </mxCell>
        <mxCell id="xh92ISO5HCk_JloRSpn9-33" value="" style="triangle;whiteSpace=wrap;html=1;rotation=90;" parent="1" vertex="1">
          <mxGeometry x="-630" y="620" width="60" height="80" as="geometry" />
        </mxCell>
        <mxCell id="xh92ISO5HCk_JloRSpn9-34" value="De compañía&lt;br&gt;(Gasto)" style="swimlane;childLayout=stackLayout;horizontal=1;startSize=50;horizontalStack=0;rounded=1;fontSize=14;fontStyle=0;strokeWidth=2;resizeParent=0;resizeLast=1;shadow=0;dashed=0;align=center;arcSize=4;whiteSpace=wrap;html=1;fillColor=#d5e8d4;strokeColor=#82b366;" parent="1" vertex="1">
          <mxGeometry x="-810" y="750" width="160" height="70" as="geometry" />
        </mxCell>
        <mxCell id="xh92ISO5HCk_JloRSpn9-36" value="De Comunidad&lt;br&gt;(Ingreso)" style="swimlane;childLayout=stackLayout;horizontal=1;startSize=50;horizontalStack=0;rounded=1;fontSize=14;fontStyle=0;strokeWidth=2;resizeParent=0;resizeLast=1;shadow=0;dashed=0;align=center;arcSize=4;whiteSpace=wrap;html=1;fillColor=#d5e8d4;strokeColor=#82b366;" parent="1" vertex="1">
          <mxGeometry x="-530" y="750" width="160" height="150" as="geometry" />
        </mxCell>
        <mxCell id="xh92ISO5HCk_JloRSpn9-37" value="Estado&lt;br&gt;(Cobrado o no)" style="align=left;strokeColor=none;fillColor=none;spacingLeft=4;fontSize=12;verticalAlign=top;resizable=0;rotatable=0;part=1;html=1;" parent="xh92ISO5HCk_JloRSpn9-36" vertex="1">
          <mxGeometry y="50" width="160" height="100" as="geometry" />
        </mxCell>
        <mxCell id="xh92ISO5HCk_JloRSpn9-38" value="Tipo de apunte" style="ellipse;whiteSpace=wrap;html=1;align=center;" parent="1" vertex="1">
          <mxGeometry x="-530" y="580" width="100" height="40" as="geometry" />
        </mxCell>
        <mxCell id="xh92ISO5HCk_JloRSpn9-39" value="" style="endArrow=none;html=1;rounded=0;exitX=0.033;exitY=0.033;exitDx=0;exitDy=0;exitPerimeter=0;entryX=0;entryY=0.5;entryDx=0;entryDy=0;" parent="1" source="xh92ISO5HCk_JloRSpn9-33" target="xh92ISO5HCk_JloRSpn9-38" edge="1">
          <mxGeometry width="50" height="50" relative="1" as="geometry">
            <mxPoint x="-470" y="600" as="sourcePoint" />
            <mxPoint x="-420" y="550" as="targetPoint" />
          </mxGeometry>
        </mxCell>
        <mxCell id="K6A35efheIVHUd_6PUlh-1" value="Administra" style="shape=rhombus;perimeter=rhombusPerimeter;whiteSpace=wrap;html=1;align=center;fillColor=#f8cecc;strokeColor=#b85450;" vertex="1" parent="1">
          <mxGeometry x="40" y="195" width="120" height="60" as="geometry" />
        </mxCell>
        <mxCell id="K6A35efheIVHUd_6PUlh-2" value="" style="endArrow=none;html=1;rounded=0;entryX=1;entryY=0.5;entryDx=0;entryDy=0;exitX=0;exitY=0.5;exitDx=0;exitDy=0;" edge="1" parent="1" source="K6A35efheIVHUd_6PUlh-1" target="xh92ISO5HCk_JloRSpn9-2">
          <mxGeometry width="50" height="50" relative="1" as="geometry">
            <mxPoint x="-60" y="490" as="sourcePoint" />
            <mxPoint x="-10" y="440" as="targetPoint" />
          </mxGeometry>
        </mxCell>
        <mxCell id="K6A35efheIVHUd_6PUlh-3" value="" style="endArrow=none;html=1;rounded=0;entryX=1;entryY=0.5;entryDx=0;entryDy=0;exitX=-0.006;exitY=0.37;exitDx=0;exitDy=0;exitPerimeter=0;" edge="1" parent="1" source="xh92ISO5HCk_JloRSpn9-4">
          <mxGeometry width="50" height="50" relative="1" as="geometry">
            <mxPoint x="410" y="224.5" as="sourcePoint" />
            <mxPoint x="160" y="224.5" as="targetPoint" />
          </mxGeometry>
        </mxCell>
        <mxCell id="K6A35efheIVHUd_6PUlh-4" value="Honorarios Anuales" style="ellipse;whiteSpace=wrap;html=1;align=center;fillColor=#fff2cc;strokeColor=#d6b656;" vertex="1" parent="1">
          <mxGeometry x="170" y="140" width="100" height="40" as="geometry" />
        </mxCell>
        <mxCell id="K6A35efheIVHUd_6PUlh-5" value="" style="endArrow=none;html=1;rounded=0;entryX=1;entryY=0;entryDx=0;entryDy=0;exitX=0;exitY=0.5;exitDx=0;exitDy=0;" edge="1" parent="1" source="K6A35efheIVHUd_6PUlh-4" target="K6A35efheIVHUd_6PUlh-1">
          <mxGeometry width="50" height="50" relative="1" as="geometry">
            <mxPoint x="-30" y="390" as="sourcePoint" />
            <mxPoint x="20" y="340" as="targetPoint" />
          </mxGeometry>
        </mxCell>
        <mxCell id="K6A35efheIVHUd_6PUlh-6" value="" style="endArrow=none;html=1;rounded=0;entryX=1;entryY=0.5;entryDx=0;entryDy=0;exitX=0;exitY=0.5;exitDx=0;exitDy=0;" edge="1" parent="1">
          <mxGeometry width="50" height="50" relative="1" as="geometry">
            <mxPoint x="810" y="224.5" as="sourcePoint" />
            <mxPoint x="560" y="224.5" as="targetPoint" />
          </mxGeometry>
        </mxCell>
        <mxCell id="K6A35efheIVHUd_6PUlh-7" value="Contrata" style="shape=rhombus;perimeter=rhombusPerimeter;whiteSpace=wrap;html=1;align=center;fillColor=#f8cecc;strokeColor=#b85450;" vertex="1" parent="1">
          <mxGeometry x="810" y="195" width="120" height="60" as="geometry" />
        </mxCell>
        <mxCell id="K6A35efheIVHUd_6PUlh-8" value="" style="endArrow=none;html=1;rounded=0;entryX=1;entryY=0.5;entryDx=0;entryDy=0;exitX=0;exitY=0.25;exitDx=0;exitDy=0;" edge="1" parent="1" target="K6A35efheIVHUd_6PUlh-7">
          <mxGeometry width="50" height="50" relative="1" as="geometry">
            <mxPoint x="1200" y="226.5" as="sourcePoint" />
            <mxPoint x="930" y="229" as="targetPoint" />
          </mxGeometry>
        </mxCell>
        <mxCell id="K6A35efheIVHUd_6PUlh-9" value="" style="endArrow=none;html=1;rounded=0;entryX=0.5;entryY=1;entryDx=0;entryDy=0;exitX=0;exitY=0.5;exitDx=0;exitDy=0;" edge="1" parent="1" source="xh92ISO5HCk_JloRSpn9-9" target="xh92ISO5HCk_JloRSpn9-4">
          <mxGeometry width="50" height="50" relative="1" as="geometry">
            <mxPoint x="730" y="610" as="sourcePoint" />
            <mxPoint x="780" y="560" as="targetPoint" />
          </mxGeometry>
        </mxCell>
        <mxCell id="K6A35efheIVHUd_6PUlh-10" value="" style="endArrow=none;html=1;rounded=0;entryX=1;entryY=0.5;entryDx=0;entryDy=0;exitX=0.5;exitY=0;exitDx=0;exitDy=0;" edge="1" parent="1" source="xh92ISO5HCk_JloRSpn9-12" target="xh92ISO5HCk_JloRSpn9-9">
          <mxGeometry width="50" height="50" relative="1" as="geometry">
            <mxPoint x="730" y="610" as="sourcePoint" />
            <mxPoint x="780" y="560" as="targetPoint" />
          </mxGeometry>
        </mxCell>
        <mxCell id="K6A35efheIVHUd_6PUlh-11" value="" style="endArrow=none;html=1;rounded=0;entryX=0.5;entryY=0;entryDx=0;entryDy=0;exitX=0.5;exitY=0;exitDx=0;exitDy=0;" edge="1" parent="1" source="xh92ISO5HCk_JloRSpn9-14" target="xh92ISO5HCk_JloRSpn9-9">
          <mxGeometry width="50" height="50" relative="1" as="geometry">
            <mxPoint x="730" y="610" as="sourcePoint" />
            <mxPoint x="780" y="560" as="targetPoint" />
          </mxGeometry>
        </mxCell>
        <mxCell id="K6A35efheIVHUd_6PUlh-12" value="" style="endArrow=none;html=1;rounded=0;entryX=0.5;entryY=1;entryDx=0;entryDy=0;exitX=0.5;exitY=0;exitDx=0;exitDy=0;" edge="1" parent="1" source="xh92ISO5HCk_JloRSpn9-10" target="xh92ISO5HCk_JloRSpn9-9">
          <mxGeometry width="50" height="50" relative="1" as="geometry">
            <mxPoint x="730" y="610" as="sourcePoint" />
            <mxPoint x="780" y="560" as="targetPoint" />
          </mxGeometry>
        </mxCell>
        <mxCell id="K6A35efheIVHUd_6PUlh-13" value="" style="endArrow=none;html=1;rounded=0;entryX=0.5;entryY=1;entryDx=0;entryDy=0;exitX=0;exitY=0.5;exitDx=0;exitDy=0;" edge="1" parent="1" source="xh92ISO5HCk_JloRSpn9-30" target="xh92ISO5HCk_JloRSpn9-32">
          <mxGeometry width="50" height="50" relative="1" as="geometry">
            <mxPoint x="479.23" y="-380" as="sourcePoint" />
            <mxPoint x="479.23" y="-470" as="targetPoint" />
          </mxGeometry>
        </mxCell>
        <mxCell id="K6A35efheIVHUd_6PUlh-14" value="" style="endArrow=none;html=1;rounded=0;entryX=0.5;entryY=1;entryDx=0;entryDy=0;exitX=0.5;exitY=0;exitDx=0;exitDy=0;" edge="1" parent="1" source="xh92ISO5HCk_JloRSpn9-7" target="xh92ISO5HCk_JloRSpn9-30">
          <mxGeometry width="50" height="50" relative="1" as="geometry">
            <mxPoint x="430" y="-10" as="sourcePoint" />
            <mxPoint x="480" y="-60" as="targetPoint" />
          </mxGeometry>
        </mxCell>
        <mxCell id="K6A35efheIVHUd_6PUlh-15" value="" style="endArrow=none;html=1;rounded=0;entryX=0.5;entryY=0;entryDx=0;entryDy=0;exitX=0.5;exitY=0;exitDx=0;exitDy=0;" edge="1" parent="1" source="xh92ISO5HCk_JloRSpn9-17" target="xh92ISO5HCk_JloRSpn9-30">
          <mxGeometry width="50" height="50" relative="1" as="geometry">
            <mxPoint x="430" y="-10" as="sourcePoint" />
            <mxPoint x="480" y="-60" as="targetPoint" />
          </mxGeometry>
        </mxCell>
        <mxCell id="K6A35efheIVHUd_6PUlh-18" value="" style="endArrow=none;html=1;rounded=0;entryX=0.406;entryY=1;entryDx=0;entryDy=0;entryPerimeter=0;exitX=0.5;exitY=0;exitDx=0;exitDy=0;" edge="1" parent="1" source="K6A35efheIVHUd_6PUlh-20">
          <mxGeometry width="50" height="50" relative="1" as="geometry">
            <mxPoint x="284.61" y="-120" as="sourcePoint" />
            <mxPoint x="284.57000000000005" y="-180" as="targetPoint" />
          </mxGeometry>
        </mxCell>
        <mxCell id="K6A35efheIVHUd_6PUlh-19" value="" style="endArrow=none;html=1;rounded=0;entryX=0.5;entryY=1;entryDx=0;entryDy=0;exitX=0.5;exitY=0;exitDx=0;exitDy=0;" edge="1" parent="1" source="K6A35efheIVHUd_6PUlh-21" target="xh92ISO5HCk_JloRSpn9-17">
          <mxGeometry width="50" height="50" relative="1" as="geometry">
            <mxPoint x="680.04" y="-120" as="sourcePoint" />
            <mxPoint x="680" y="-180" as="targetPoint" />
          </mxGeometry>
        </mxCell>
        <mxCell id="K6A35efheIVHUd_6PUlh-20" value="Tiene" style="shape=rhombus;perimeter=rhombusPerimeter;whiteSpace=wrap;html=1;align=center;fillColor=#f8cecc;strokeColor=#b85450;" vertex="1" parent="1">
          <mxGeometry x="225" y="-140" width="120" height="60" as="geometry" />
        </mxCell>
        <mxCell id="K6A35efheIVHUd_6PUlh-21" value="Tiene" style="shape=rhombus;perimeter=rhombusPerimeter;whiteSpace=wrap;html=1;align=center;fillColor=#f8cecc;strokeColor=#b85450;" vertex="1" parent="1">
          <mxGeometry x="615" y="-130" width="120" height="60" as="geometry" />
        </mxCell>
      </root>
    </mxGraphModel>
  </diagram>
</mxfile>
